<?xml version="1.0" encoding="utf-8"?>
<!-- Generator: Adobe Illustrator 24.0.0, SVG Export Plug-In . SVG Version: 6.00 Build 0)  -->
<svg version="1.1" xmlns="http://www.w3.org/2000/svg" xmlns:xlink="http://www.w3.org/1999/xlink" x="0px" y="0px"
	 viewBox="0 0 64 64" enable-background="new 0 0 64 64" xml:space="preserve">
<g id="Captions">
</g>
<g id="Icons">
	<g>
		<g>
			<path fill="#FA6450" d="M30.244,11.219L7.431,53.042C6.705,54.375,7.669,56,9.187,56h45.625c1.518,0,2.483-1.625,1.756-2.958
				L33.756,11.219C32.998,9.829,31.002,9.829,30.244,11.219z"/>
		</g>
		<g>
			<path fill="#DC4632" d="M10.247,53.042L33.06,11.219c0.097-0.178,0.216-0.332,0.348-0.464c-0.902-0.901-2.503-0.748-3.164,0.464
				L7.431,53.042C6.705,54.375,7.669,56,9.187,56h2.816C10.485,56,9.52,54.375,10.247,53.042z"/>
		</g>
		<g>
			<path fill="#F0F0F0" d="M32,42L32,42c-1.105,0-2-0.895-2-2V26c0-1.105,0.895-2,2-2h0c1.105,0,2,0.895,2,2v14
				C34,41.105,33.105,42,32,42z"/>
		</g>
		<g>
			<path fill="#F0F0F0" d="M32,50L32,50c-1.105,0-2-0.895-2-2v0c0-1.105,0.895-2,2-2h0c1.105,0,2,0.895,2,2v0
				C34,49.105,33.105,50,32,50z"/>
		</g>
		<g>
			<circle fill="#FAB400" cx="52" cy="12" r="8"/>
		</g>
		<g>
			<path fill="#DC9600" d="M45.983,12c0-4.082,3.059-7.443,7.009-7.932C52.666,4.027,52.336,4,52,4c-4.418,0-8,3.582-8,8
				s3.582,8,8,8c0.336,0,0.666-0.027,0.991-0.068C49.042,19.443,45.983,16.082,45.983,12z"/>
		</g>
		<g>
			<polygon fill="#F0F0F0" points="56.243,14.828 53.414,12 56.243,9.172 54.828,7.757 52,10.586 49.172,7.757 47.757,9.172 
				50.586,12 47.757,14.828 49.172,16.243 52,13.414 54.828,16.243 			"/>
		</g>
	</g>
</g>
</svg>
